<?xml version="1.0" standalone="no"?> <!DOCTYPE svg PUBLIC "-//W3C//DTD SVG 1.0//EN" "http://www.w3.org/TR/2001/REC-SVG-20010904/DTD/svg10.dtd" > <svg xmlns="http://www.w3.org/2000/svg" width="100%" height="100%">
<defs >
<font id="fontscorecomuuniversltstd47lightcondensed" horiz-adv-x="743" ><font-face
    font-family="Univers LT Std 47 Cn Lt"
    units-per-em="2048"
    panose-1="2 11 4 6 2 2 2 4 2 4"
    ascent="1483"
    descent="-565"
    alphabetic="0" />
<missing-glyph horiz-adv-x="1024" d="M0 0V1434H1024V0H0ZM512 809L860 1331H164L512 809ZM573 717L922 195V1239L573 717ZM164 102H860L512 625L164 102ZM102 1239V195L451 717L102 1239Z" />
<glyph unicode=" " glyph-name="space" horiz-adv-x="454" />
<glyph unicode="!" glyph-name="exclam" horiz-adv-x="681" d="M264 0V156H416V0H264ZM393 348H287L268 1479H412L393 348Z" />
<glyph unicode="&quot;" glyph-name="quotedbl" horiz-adv-x="632" d="M150 1055V1479H256V1055H150ZM377 1055V1479H483V1055H377Z" />
<glyph unicode="#" glyph-name="numbersign" horiz-adv-x="909" d="M66 0L209 477H-16L18 575H238L313 827H90L125 926H340L487 1427H594L446 926H604L750 1427H856L711 926H926L893 827H684L608 575H819L786 477H582L442 0H330L473 477H315L172 0H66ZM342 575H500L578
827H422L342 575Z" />
<glyph unicode="$" glyph-name="dollar" horiz-adv-x="909" d="M416 827V1339Q225 1316 225 1120Q225 1049 252 992T317 900T416 827ZM498 635V88Q603 96 652 149T702 319Q702 430 649 502T498 635ZM498 -23V-182H416V-23Q239 -12 159 87T78 393H209Q209 241 252
170T416 88V682Q381 702 368 709T323 736T276 767T235 799T195 836T163 877T134 924T113 976T98 1037T94 1106Q94 1263 181 1348T416 1450V1579H498V1450Q674 1444 753 1348T825 1059H694Q694 1126 686 1172T657 1256T597 1314T498 1339V782Q628 710 674 675Q810
572 830 416Q834 386 834 354Q834 0 498 -23Z" />
<glyph unicode="%" glyph-name="percent" horiz-adv-x="1593" d="M420 705Q356 705 308 725T231 777T184 858T160 956T154 1065Q154 1127 159 1176T181 1279T226 1368T303 1427T420 1450Q494 1450 547 1422T630 1343T673 1233T686 1102Q686 1039 681 989T660 884T616
791T538 730T420 705ZM420 803Q456 803 484 815T529 850T556 899T572 958T578 1018T580 1077Q580 1352 420 1352T260 1077Q260 1044 261 1019T267 959T283 899T311 851T355 815T420 803ZM1174 -23Q1110 -23 1062 -3T984 50T938 131T914 228T907 338Q907 400 912
449T934 552T979 641T1057 700T1174 723Q1248 723 1301 695T1384 616T1426 506T1440 375Q1440 312 1435 262T1414 156T1370 63T1292 2T1174 -23ZM1174 76Q1210 76 1238 88T1282 123T1310 172T1325 232T1331 292T1333 350Q1333 625 1174 625Q1014 625 1014 350Q1014
317 1015 292T1021 232T1037 172T1065 124T1109 88T1174 76ZM524 -80H430L1053 1479H1147L524 -80Z" />
<glyph unicode="&amp;" glyph-name="ampersand" horiz-adv-x="1251" d="M860 250L467 725Q405 680 374 654T309 588T263 500T250 389Q250 235 331 159T565 82Q656 82 738 127T860 250ZM494 883Q545 920 576 947T643 1015T694 1101T711 1202Q711 1397 530 1397Q439
1397 386 1348T332 1208Q332 1168 340 1131T358 1070T391 1011T428 960T477 903Q488 890 494 883ZM1055 0L944 147Q859 45 758 8T510 -29Q449 -29 395 -17T289 26T200 103T141 222T119 387Q119 434 125 474T140 545T169 607T205 658T255 707T310 753T377 804Q385
810 389 813Q376 829 342 870T295 927T259 978T226 1039T209 1103T201 1182Q201 1351 284 1429T541 1507Q688 1507 765 1436T842 1194Q842 1162 838 1133T823 1077T803 1029T774 983T742 944T702 905T662 870T616 832T571 795L920 373Q943 449 958 590T973 829H1096Q1096
703 1078 546T1010 260L1223 0H1055Z" />
<glyph unicode="&apos;" glyph-name="quotesingle" horiz-adv-x="405" d="M150 1055V1479H256V1055H150Z" />
<glyph unicode="(" glyph-name="parenleft" horiz-adv-x="454" d="M240 1522H332Q267 1266 231 1053T195 633Q195 208 332 -270H231Q151 -20 107 188T63 602Q63 1012 240 1522Z" />
<glyph unicode=")" glyph-name="parenright" horiz-adv-x="454" d="M123 1522H215Q391 1010 391 602Q391 397 347 189T223 -270H123Q260 208 260 633Q260 840 224 1053T123 1522Z" />
<glyph unicode="*" glyph-name="asterisk" horiz-adv-x="909" d="M455 1249L578 1507L670 1450L512 1221L791 1243V1135L512 1163L674 930L575 870L455 1130L334 870L236 930L397 1163L119 1135V1243L397 1221L240 1450L332 1507L455 1249Z" />
<glyph unicode="+" glyph-name="plus" horiz-adv-x="909" d="M401 465H41V571H401V1034H508V571H868V465H508V0H401V465Z" />
<glyph unicode="," glyph-name="comma" horiz-adv-x="454" d="M111 -215L193 156H342L219 -215H111Z" />
<glyph unicode="-" glyph-name="hyphen" horiz-adv-x="569" d="M492 487H78V604H492V487Z" />
<glyph unicode="." glyph-name="period" horiz-adv-x="454" d="M152 0V156H303V0H152Z" />
<glyph unicode="/" glyph-name="slash" horiz-adv-x="681" d="M102 -225H-6L575 1479H686L102 -225Z" />
<glyph unicode="0" glyph-name="zero" horiz-adv-x="909" d="M221 993V434Q221 357 231 298T261 202T302 141T353 106T405 92T455 88T505 91T556 106T606 141T647 201T677 297T688 434V993Q688 1085 672 1152T634 1254T577 1309T516 1334T455 1339Q431 1339 412
1337T368 1327T324 1304T284 1264T251 1203T230 1114T221 993ZM455 1450Q702 1450 777 1251Q817 1144 819 925Q819 906 819 868V559Q819 349 799 254Q756 47 591 -4Q531 -23 455 -23Q207 -23 132 178Q91 285 90 504Q90 523 90 559V868Q90 1078 110 1173Q152 1378
316 1431Q377 1450 455 1450Z" />
<glyph unicode="1" glyph-name="one" horiz-adv-x="909" d="M182 1063V1204Q362 1330 440 1427H555V0H432V1264Q305 1144 182 1063Z" />
<glyph unicode="2" glyph-name="two" horiz-adv-x="909" d="M807 111V0H80V115Q158 235 261 386T428 631T554 824T645 996T674 1124T660 1219T625 1282T571 1318T509 1335T440 1339Q328 1339 268 1267T207 1079H84Q84 1161 105 1226T161 1333T243 1401T339 1439T440
1450Q494 1450 542 1443T639 1416T724 1363T782 1277T805 1153Q805 1117 802 1087T786 1019T761 951T719 867T663 773T585 652T490 509T368 327T223 111H807Z" />
<glyph unicode="3" glyph-name="three" horiz-adv-x="909" d="M350 684V795Q508 781 585 853T662 1085Q662 1339 436 1339Q319 1339 268 1269T221 1079H90Q79 1241 167 1345T420 1450Q606 1450 699 1369T793 1102Q793 1035 783 981T749 877T680 792T569 741V737Q627
731 670 709T739 655T780 578T801 489T807 389Q807 191 716 84T451 -23Q261 -23 162 69T70 350H201Q198 229 256 159T432 88Q676 88 676 360Q676 456 662 518T611 621T511 677T350 684Z" />
<glyph unicode="4" glyph-name="four" horiz-adv-x="909" d="M168 467H569V1305H565L168 467ZM692 1427V467H860V356H692V0H569V356H57V475L498 1427H692Z" />
<glyph unicode="5" glyph-name="five" horiz-adv-x="909" d="M498 913Q553 913 599 903T678 877T738 834T780 782T808 720T825 655T834 586T837 522T838 460Q838 451 838 446Q838 382 832 329T812 220T770 122T703 47T605 -5T471 -23Q99 -23 109 342H240Q237 216
291 152T469 88Q531 88 576 110T646 164T685 247T703 342T707 446Q707 499 705 535T695 617T671 692T629 749T562 790T465 803Q389 803 323 763T242 653H123V1427H780V1317H246V807Q310 866 363 889T498 913Z" />
<glyph unicode="6" glyph-name="six" horiz-adv-x="909" d="M688 459Q688 631 639 709T467 788Q349 788 282 705T215 446Q215 445 215 443Q214 431 214 420T215 383T219 334T229 280T248 223T279 172T322 128T380 99T457 88Q503 88 539 100T599 131T640 181T667
241T681 312T687 384T688 459ZM805 1110H674Q661 1339 465 1339Q425 1339 392 1330T334 1305T291 1264T260 1214T239 1152T226 1086T219 1013T216 940T215 866V741L219 743Q258 820 331 859T500 899Q567 899 620 880T706 833T762 764T797 689T813 611T819 548T819
504Q819 498 819 496Q819 429 817 379T805 272T781 174T741 94T679 31T591 -8T473 -23Q400 -23 343 -11T245 23T177 80T133 153T107 244T95 348T92 465V932Q92 1042 101 1119T135 1263T203 1368T312 1428T473 1450Q799 1450 805 1110Z" />
<glyph unicode="7" glyph-name="seven" horiz-adv-x="909" d="M66 1317V1427H788V1296L348 0H205L664 1317H66Z" />
<glyph unicode="8" glyph-name="eight" horiz-adv-x="909" d="M455 795Q682 795 682 1075Q682 1212 633 1282T455 1352T277 1282T227 1075Q227 795 455 795ZM602 752V748Q673 732 719 699T788 615T819 512T827 387Q827 324 820 272T789 163T726 67T618 3T455 -23T293
2T184 67T121 163T90 272T82 387Q82 460 90 512T121 615T190 699T307 748L303 752Q240 765 198 797T134 877T105 976T96 1094Q96 1130 97 1155T106 1221T127 1289T167 1350T231 1403T325 1436T455 1450T584 1437T678 1403T741 1351T781 1290T802 1221T811 1156T813
1094Q813 1027 805 976T775 877T710 797T602 752ZM455 76Q696 76 696 371Q696 409 695 437T688 502T672 563T644 615T601 658T539 685T455 696Q400 696 359 683T292 645T250 592T226 523T216 449T213 371Q213 76 455 76Z" />
<glyph unicode="9" glyph-name="nine" horiz-adv-x="909" d="M442 674Q688 674 688 995Q688 1033 688 1054T685 1110T679 1164T667 1211T647 1255T617 1289T576 1316T521 1332T451 1339Q392 1339 349 1320T282 1272T243 1197T224 1110T219 1012Q219 968 222 932T232
855T256 784T296 727T357 688T442 674ZM430 563Q244 563 166 671T88 1012Q88 1091 97 1154T131 1274T196 1368T299 1428T446 1450Q664 1450 746 1339Q807 1256 816 1065Q819 1006 819 897V721Q819 397 801 277Q775 102 687 36Q609 -23 457 -23Q276 -23 193 57T104
317H236Q231 88 440 88Q576 88 629 156Q676 217 687 384Q690 435 696 688H692Q605 563 430 563Z" />
<glyph unicode=":" glyph-name="colon" horiz-adv-x="454" d="M152 0V156H303V0H152ZM152 879V1034H303V879H152Z" />
<glyph unicode=";" glyph-name="semicolon" horiz-adv-x="454" d="M82 -215L164 156H313L190 -215H82ZM152 879V1034H303V879H152Z" />
<glyph unicode="&lt;" glyph-name="less" horiz-adv-x="909" d="M39 473V563L872 1042V928L145 528V518L872 106V-8L39 473Z" />
<glyph unicode="=" glyph-name="equal" horiz-adv-x="909" d="M868 754V647H41V754H868ZM868 389V283H41V389H868Z" />
<glyph unicode="&gt;" glyph-name="greater" horiz-adv-x="909" d="M872 563V473L39 -8V106L766 518V528L39 928V1042L872 563Z" />
<glyph unicode="?" glyph-name="question" horiz-adv-x="796" d="M428 348H305V526Q305 594 317 647T348 736T389 801T435 864T477 934T508 1031T520 1167Q520 1215 518 1243T508 1304T483 1355T436 1385T360 1397Q310 1397 278 1378T231 1322T212 1250T209 1165H78Q72
1323 138 1415T358 1507Q447 1507 504 1487T594 1422T638 1317T651 1165Q651 1086 639 1021T607 912T564 831T516 762T473 700T441 628T428 541V348ZM293 0V156H444V0H293Z" />
<glyph unicode="@" glyph-name="at" horiz-adv-x="1638" d="M682 397Q769 397 823 444T913 571Q959 673 1001 812T1044 1001Q1044 1059 999 1105T883 1151Q806 1151 736 1099T620 968T546 802T518 639Q518 522 561 460T682 397ZM1104 1108L1135 1208H1247L1032
565Q1004 483 1004 444Q1004 397 1112 397Q1181 397 1242 430T1343 513T1412 623T1455 736T1468 829Q1468 941 1442 1032T1374 1182T1273 1285T1157 1352T1032 1388T917 1405T819 1409Q685 1409 565 1357T359 1215T221 1002T170 739Q170 602 221 478T358 265T565
123T819 70Q1014 70 1177 146T1442 360H1550Q1449 176 1255 74T819 -29Q617 -29 445 74T173 354T72 739Q72 894 131 1036T291 1282T529 1446T819 1507Q942 1507 1049 1486T1253 1417T1418 1295T1527 1111T1567 860Q1567 738 1523 630T1410 451T1256 340T1090 299Q1011
299 968 320T907 401Q793 299 653 299Q529 299 462 388T395 614Q395 722 429 833T525 1038T681 1190T885 1249Q1040 1249 1104 1108Z" />
<glyph unicode="A" glyph-name="A" horiz-adv-x="1138" d="M494 1479H649L1110 0H973L854 389H274L158 0H27L494 1479ZM313 500H819L567 1335H563L313 500Z" />
<glyph unicode="B" glyph-name="B" horiz-adv-x="1024" d="M270 821H522Q770 821 770 1118Q770 1169 762 1209T741 1275T708 1319T669 1347T623 1361T577 1367T530 1368H270V821ZM557 0H139V1479H551Q729 1479 815 1397T901 1124Q901 1066 897 1024T879 939T842
866T780 812T686 772V768Q824 739 878 651T932 412Q932 211 837 106T557 0ZM270 711V111H479Q647 111 724 176T801 401Q801 445 796 484T773 566T728 640T651 691T537 711H270Z" />
<glyph unicode="C" glyph-name="C" horiz-adv-x="1024" d="M563 -29Q292 -29 193 165Q126 293 119 562Q117 623 117 739Q117 1012 137 1133Q176 1365 317 1450Q413 1507 563 1507Q637 1507 696 1490T792 1447T857 1380T897 1305T918 1222T927 1146T928 1079H797Q797
1397 563 1397Q380 1397 310 1266Q257 1165 250 927Q248 864 248 739Q248 464 266 356Q296 177 400 118Q464 82 563 82Q645 82 699 129T775 250T799 424H938Q938 395 936 365T925 288T901 201T858 116T791 42T694 -9T563 -29Z" />
<glyph unicode="D" glyph-name="D" horiz-adv-x="1138" d="M285 1368V111H444Q506 111 552 114T641 127T712 149T768 187T810 239T840 310T860 401T871 516T877 654T879 821Q879 934 873 1009T850 1150T805 1254T728 1319T615 1357T457 1368H285ZM154 0V1479H545Q633
1479 700 1464T817 1420T901 1343T957 1239T990 1101T1006 934T1010 733Q1010 621 1005 538T985 374T947 238T883 135T790 59T661 16T492 0H154Z" />
<glyph unicode="E" glyph-name="E" horiz-adv-x="909" d="M154 1479H823V1368H285V815H799V705H285V111H838V0H154V1479Z" />
<glyph unicode="F" glyph-name="F" horiz-adv-x="796" d="M139 0V1479H764V1368H270V815H729V705H270V0H139Z" />
<glyph unicode="G" glyph-name="G" horiz-adv-x="1138" d="M846 125V662H547V772H977V33Q779 -29 569 -29Q487 -29 421 -10T309 42T229 120T176 219T144 332T129 451T123 570T123 684Q123 721 123 739T123 794Q124 843 123 895T126 1001T137 1107T159 1210T196
1305T252 1386T330 1450T435 1492T569 1507Q785 1507 890 1409T991 1100H860Q860 1249 791 1323T569 1397Q380 1397 311 1255Q260 1151 255 913Q254 863 254 739Q254 477 268 378Q295 189 398 124Q464 82 569 82Q735 82 846 125Z" />
<glyph unicode="H" glyph-name="H" horiz-adv-x="1138" d="M279 0H147V1479H279V815H860V1479H991V0H860V705H279V0Z" />
<glyph unicode="I" glyph-name="I" horiz-adv-x="454" d="M162 1479H293V0H162V1479Z" />
<glyph unicode="J" glyph-name="J" horiz-adv-x="909" d="M45 418H176Q176 378 177 348T184 280T199 217T225 163T265 120T322 93T399 82Q500 82 563 142T627 338V1479H758V319Q758 248 740 191T695 98T630 36T559 -2T488 -20T432 -28T397 -29Q330 -29 276 -15T186
22T123 80T82 152T59 236T48 325T45 418Z" />
<glyph unicode="K" glyph-name="K" horiz-adv-x="1024" d="M291 0H160V1479H291V801H295L819 1479H977L424 788L993 0H829L295 758H291V0Z" />
<glyph unicode="L" glyph-name="L" horiz-adv-x="796" d="M758 0H137V1479H268V111H758V0Z" />
<glyph unicode="M" glyph-name="M" horiz-adv-x="1593" d="M276 0H145V1479H369L805 143H809L1239 1479H1448V0H1317V1352H1313L879 0H727L281 1352H276V0Z" />
<glyph unicode="N" glyph-name="N" horiz-adv-x="1251" d="M289 0H158V1479H358L958 180L963 184V1479H1094V0H895L293 1313L289 1309V0Z" />
<glyph unicode="O" glyph-name="O" horiz-adv-x="1138" d="M254 739Q254 464 272 356Q302 177 406 118Q470 82 569 82Q753 82 823 214Q876 315 883 553Q885 615 885 739Q885 1014 867 1122Q837 1301 733 1360Q669 1397 569 1397Q386 1397 316 1266Q263 1165 256
927Q254 864 254 739ZM123 739Q123 1012 143 1133Q182 1365 323 1450Q419 1507 569 1507Q840 1507 940 1315Q1006 1186 1014 918Q1016 857 1016 739Q1016 466 996 345Q957 113 815 28Q719 -29 569 -29Q298 -29 199 165Q132 293 125 562Q123 623 123 739Z" />
<glyph unicode="P" glyph-name="P" horiz-adv-x="909" d="M131 0V1479H537Q569 1479 594 1477T654 1468T716 1446T772 1405T819 1341T850 1248T862 1120Q862 894 781 791T512 688H262V0H131ZM262 1368V799H506Q617 799 674 865T731 1096Q731 1169 718 1221T686
1301T635 1344T574 1364T504 1368H262Z" />
<glyph unicode="Q" glyph-name="Q" horiz-adv-x="1138" d="M569 102Q628 102 674 118T754 162T810 235T848 330T871 449T882 585T885 739Q885 1001 871 1100Q844 1290 741 1355Q675 1397 569 1397Q380 1397 311 1255Q260 1151 255 913Q254 863 254 739Q254 638
256 569T266 427T288 309T325 220T381 153T461 116T569 102ZM123 739Q123 757 123 794Q124 843 123 895T126 1001T137 1107T159 1210T196 1305T252 1386T330 1450T435 1492T569 1507Q651 1507 718 1488T830 1436T910 1358T963 1259T995 1147T1010 1028T1016 908T1016
794Q1016 757 1016 739Q1016 442 983 312T848 115L852 111H1110V0H827Q797 0 739 -4Q679 -8 633 -8Q350 -8 237 117Q151 211 132 419Q123 514 123 739Z" />
<glyph unicode="R" glyph-name="R" horiz-adv-x="1024" d="M518 717H270V0H139V1479H547Q654 1479 722 1461T831 1398T887 1290T903 1124Q903 1064 899 1021T880 934T840 862T774 809T674 772V768Q709 761 730 756T776 740T813 721T840 691T861 652T875 597T885
526T889 432T892 316T893 172Q893 139 899 77T907 0H782Q770 42 762 369Q762 375 762 401T763 450T759 506T747 567T720 623T677 671T610 704T518 717ZM270 1368V827H483Q561 827 612 839T701 883T755 975T772 1126Q772 1201 758 1249T713 1323T641 1358T539 1368H270Z"
/>
<glyph unicode="S" glyph-name="S" horiz-adv-x="1024" d="M907 1104H774Q771 1253 719 1325T524 1397Q397 1397 331 1344T264 1167Q264 1114 274 1074T298 1008T341 957T395 917T465 873T543 821Q578 796 632 763T720 708T794 652T857 581T895 490T911 365Q911
-29 518 -29Q93 -29 113 416H248Q248 374 249 346T257 279T273 215T304 163T353 119T425 93T524 82Q780 82 780 344Q780 374 776 400T765 448T745 492T720 529T686 565T648 597T602 629T553 661T495 696T434 733Q363 776 312 813T229 886T177 948T148 1012T137
1074T133 1145Q132 1330 238 1418T535 1507Q624 1507 691 1485T798 1427T864 1338T898 1229T907 1104Z" />
<glyph unicode="T" glyph-name="T" horiz-adv-x="909" d="M389 0V1368H29V1479H881V1368H520V0H389Z" />
<glyph unicode="U" glyph-name="U" horiz-adv-x="1138" d="M268 1479V549Q268 505 268 482T271 413T279 342T294 276T319 213T357 161T409 118T479 93T569 82T658 92T728 118T781 161T818 212T843 275T859 341T866 413T869 481T870 549V1479H1001V453Q1001 -29
569 -29T137 453V1479H268Z" />
<glyph unicode="V" glyph-name="V" horiz-adv-x="1024" d="M512 156L877 1479H1004L594 0H430L18 1479H158L508 156H512Z" />
<glyph unicode="W" glyph-name="W" horiz-adv-x="1705" d="M463 172L764 1479H940L1237 182H1241L1556 1479H1686L1319 0H1147L850 1315H846L541 0H377L20 1479H160L459 172H463Z" />
<glyph unicode="X" glyph-name="X" horiz-adv-x="1024" d="M49 1479H193L506 862L829 1479H969L588 764L1004 0H850L500 676L158 0H18L416 764L49 1479Z" />
<glyph unicode="Y" glyph-name="Y" horiz-adv-x="1024" d="M444 0V614L27 1479H174L512 743L866 1479H997L575 614V0H444Z" />
<glyph unicode="Z" glyph-name="Z" horiz-adv-x="909" d="M90 1479H854V1333L184 111H860V0H49V145L725 1368H90V1479Z" />
<glyph unicode="[" glyph-name="bracketleft" horiz-adv-x="454" d="M102 -270V1522H387V1423H225V-172H387V-270H102Z" />
<glyph unicode="\" glyph-name="backslash" horiz-adv-x="454" d="M418 0L-72 1479H37L526 0H418Z" />
<glyph unicode="]" glyph-name="bracketright" horiz-adv-x="454" d="M352 1522V-270H68V-172H229V1423H68V1522H352Z" />
<glyph unicode="^" glyph-name="asciicircum" horiz-adv-x="909" d="M412 1450H498L774 610H678L455 1294H451L231 610H135L412 1450Z" />
<glyph unicode="_" glyph-name="underscore" horiz-adv-x="1024" d="M1024 -256H0V-154H1024V-256Z" />
<glyph unicode="`" glyph-name="grave" horiz-adv-x="569" d="M416 1147H313L20 1427H184L416 1147Z" />
<glyph unicode="a" glyph-name="a" horiz-adv-x="909" d="M651 340V528Q635 527 597 527T537 526T479 522T419 515T365 502T314 482T272 452T238 412T217 359T209 291Q209 198 256 138T395 78Q500 78 575 157T651 340ZM659 0V127H655Q558 -20 362 -20Q227 -20
153 63T78 285Q78 351 95 403T137 489T205 548T285 585T379 606T472 617T567 622T651 627V713Q651 834 605 895T442 956Q353 956 297 911T240 778H109Q113 850 141 904T217 991T324 1039T453 1055Q495 1055 527 1052T609 1034T692 991T749 910T774 780V260Q774
121 786 0H659Z" />
<glyph unicode="b" glyph-name="b" horiz-adv-x="909" d="M248 532Q248 494 248 473T250 410T256 342T267 277T286 213T314 160T353 116T405 89T471 78Q519 78 555 90T616 121T658 174T684 240T698 323T704 413T705 514Q705 562 705 593T702 666T695 736T682 797T662
852T633 895T592 929T539 948T471 956Q414 956 372 926T306 853T270 748T252 637T248 532ZM244 0H117Q129 70 129 102V1479H252V918L256 913Q303 987 366 1021T518 1055Q583 1055 634 1038T717 990T772 919T805 833T821 739T827 644T827 557Q827 530 827 518Q827
460 826 416T817 313T797 211T760 121T703 46T621 -1T508 -20Q325 -20 248 125H244V0Z" />
<glyph unicode="c" glyph-name="c" horiz-adv-x="796" d="M709 737H586Q596 956 403 956Q346 956 302 925T238 838Q225 803 217 710T209 512Q209 470 209 448T211 383T216 316T225 255T241 197T265 150T298 111T342 88T399 78Q446 78 480 90T533 121T565 171T581
232T588 305H711Q714 226 694 165T644 70T572 15T496 -13T428 -20Q192 -20 120 155Q80 251 78 454Q78 473 78 512Q78 764 109 854Q181 1055 420 1055Q559 1055 637 975T709 737Z" />
<glyph unicode="d" glyph-name="d" horiz-adv-x="909" d="M434 78Q531 78 596 163T662 424V608Q662 630 662 647T657 703T644 771T619 838T578 899T516 939T430 956Q286 956 240 834Q210 756 209 565Q209 548 209 514Q209 401 220 321T249 194T297 121T359 86T434
78ZM674 0L668 131L664 129Q615 53 553 17T401 -20Q339 -20 290 -2T208 43T152 116T116 204T96 306T88 411T86 518Q86 717 112 817Q174 1055 403 1055Q475 1055 540 1023T653 932L657 930V1479H780V205Q780 65 793 0H674Z" />
<glyph unicode="e" glyph-name="e" horiz-adv-x="909" d="M811 492H221V412Q221 351 231 298T264 193T337 109T455 78Q567 78 625 142T682 315H811Q801 136 710 58T455 -20Q98 -20 98 365V618Q98 1055 455 1055Q678 1055 755 912Q806 819 810 613Q811 574 811
492ZM221 590H688Q688 664 683 717T662 817T622 894T555 939T455 956T355 940T288 894T247 818T227 717T221 590Z" />
<glyph unicode="f" glyph-name="f" horiz-adv-x="569" d="M205 0V936H39V1034H205V1208Q205 1246 208 1276T226 1348T267 1418T346 1466T469 1487Q477 1487 539 1479V1376H446Q412 1376 389 1364T354 1336T336 1294T329 1252T328 1210V1034H537V936H328V0H205Z" />
<glyph unicode="g" glyph-name="g" horiz-adv-x="909" d="M426 956Q382 956 347 940T290 901T251 840T227 770T215 690T210 613T209 541Q209 493 209 469T211 401T217 333T228 274T247 219T275 176T314 140T366 120T432 111Q503 111 552 147T618 227Q642 290 649
364T657 657Q657 808 590 882T426 956ZM666 905V1036H786Q780 889 780 834V-37Q780 -127 764 -190T709 -302T597 -375T416 -399Q342 -399 285 -379T196 -329T143 -259T118 -183T115 -113H238Q231 -199 287 -250T432 -301Q470 -301 499 -297T552 -284T591 -262T619
-230T638 -188T649 -136T655 -73T657 0T657 86Q657 119 657 137H653Q615 74 549 43T403 12Q341 12 292 27T210 67T154 131T117 209T97 302T88 398T86 498Q86 672 90 718T117 850Q121 866 131 888T164 940T218 995T299 1037T408 1055Q488 1055 558 1016T662 909L666
905Z" />
<glyph unicode="h" glyph-name="h" horiz-adv-x="909" d="M248 0H125V1479H248V907H252Q354 1055 502 1055Q555 1055 598 1044T670 1014T720 969T754 915T773 853T782 790T784 729V0H662V723Q662 824 617 890T471 956Q427 956 389 940T319 890T267 794T248 649V0Z" />
<glyph unicode="i" glyph-name="i" horiz-adv-x="454" d="M289 0H166V1034H289V0ZM303 1323H152V1479H303V1323Z" />
<glyph unicode="j" glyph-name="j" horiz-adv-x="454" d="M174 1034H297V-190Q297 -217 293 -241T277 -296T243 -347T184 -384T96 -399Q26 -399 6 -391V-289Q64 -293 96 -287T146 -260T169 -209T174 -123V1034ZM311 1323H160V1479H311V1323Z" />
<glyph unicode="k" glyph-name="k" horiz-adv-x="796" d="M129 0V1479H252V578H256L612 1034H756L389 573L780 0H625L256 563H252V0H129Z" />
<glyph unicode="l" glyph-name="l" horiz-adv-x="454" d="M289 0H166V1479H289V0Z" />
<glyph unicode="m" glyph-name="m" horiz-adv-x="1366" d="M246 666V0H123V1036H233V907H238Q277 974 339 1014T483 1055T628 1012T719 893Q758 971 823 1013T973 1055Q1098 1055 1167 977T1241 770V0H1118V739Q1117 781 1109 817T1083 885T1033 937T958 956Q902
956 859 930T792 861T755 769T743 666V0H621V739Q620 781 612 817T586 885T536 937T461 956Q405 956 362 930T295 861T258 769T246 666Z" />
<glyph unicode="n" glyph-name="n" horiz-adv-x="909" d="M248 649V0H125V1034H248V907H252Q354 1055 502 1055Q555 1055 598 1044T670 1014T720 969T754 915T773 853T782 790T784 729V0H662V723Q662 824 617 890T471 956Q427 956 389 940T319 890T267 794T248 649Z" />
<glyph unicode="o" glyph-name="o" horiz-adv-x="909" d="M633 -20T455 -20T188 90T98 406V629Q98 834 187 944T455 1055T722 945T811 629V406Q811 201 722 91ZM455 956Q405 956 367 943T304 901T262 838T237 751T225 645T221 518T224 391T236 285T262 197T304
133T367 92T455 78Q514 78 556 98T624 154T664 247T683 368T688 518T683 667T664 787T625 880T557 935T455 956Z" />
<glyph unicode="p" glyph-name="p" horiz-adv-x="909" d="M252 610V426Q252 259 316 169T471 78Q521 78 559 91T622 133T664 196T689 284T701 391T705 518T702 644T690 750T664 838T622 901T559 942T471 956Q438 956 403 937T332 880T275 772T252 610ZM248 1034V909L252
911Q298 982 366 1018T502 1055T621 1038T707 997T765 932T801 859T819 778T826 704T827 637V406Q827 195 745 88T471 -20Q342 -20 256 115L252 117V-391H129V1034H248Z" />
<glyph unicode="q" glyph-name="q" horiz-adv-x="909" d="M428 78Q476 78 512 90T573 121T615 174T641 240T655 323T661 413T662 514Q662 562 662 593T659 666T652 736T639 797T619 852T590 895T549 929T496 948T428 956Q371 956 329 926T263 853T227 748T209
637T205 532Q205 494 205 473T207 410T213 342T224 277T243 213T271 160T310 116T362 89T428 78ZM666 1034H793Q780 969 780 932V-391H657V117L653 121Q606 48 543 14T391 -20Q326 -20 275 -3T192 45T137 115T104 201T88 295T82 390T82 477Q82 504 82 516Q82 574
83 618T92 721T112 824T149 914T206 989T288 1036T401 1055Q586 1055 662 901H666V1034Z" />
<glyph unicode="r" glyph-name="r" horiz-adv-x="569" d="M256 1034V895H260Q298 969 375 1012T545 1055V930Q414 941 335 869T256 666V0H133V1034H256Z" />
<glyph unicode="s" glyph-name="s" horiz-adv-x="796" d="M705 272Q705 128 626 54T399 -20Q234 -20 161 60T90 307H215Q215 190 255 131T406 72Q493 72 537 119T582 254Q582 302 562 341T510 405T435 454T350 498T264 546T190 605T137 686T117 797Q117 1055 428
1055Q502 1055 556 1031T640 964T684 870T698 756H578Q572 861 535 908T397 956Q329 956 285 916T240 807Q240 761 260 724T312 663T387 616T472 573T558 525T632 466T685 384T705 272Z" />
<glyph unicode="t" glyph-name="t" horiz-adv-x="569" d="M199 936H33V1034H199V1247L322 1300V1034H530V936H322V272Q322 167 342 135T434 102Q494 102 530 109V2Q476 -4 414 -4Q295 -4 247 46T199 197V936Z" />
<glyph unicode="u" glyph-name="u" horiz-adv-x="909" d="M653 1034H776V0H670V115H666Q610 46 549 13T406 -20Q329 -20 274 6T189 79T146 181T133 303V1034H256V324Q256 308 256 301T259 263T267 214T285 167T316 121T363 91T428 78Q486 78 532 103T603 165T640
238T653 305V1034Z" />
<glyph unicode="v" glyph-name="v" horiz-adv-x="796" d="M154 1034L401 156H406L657 1034H776L469 0H328L20 1034H154Z" />
<glyph unicode="w" glyph-name="w" horiz-adv-x="1366" d="M305 0L20 1034H152L383 129H387L606 1034H758L987 129H991L1223 1034H1346L1061 0H907L680 885H676L459 0H305Z" />
<glyph unicode="x" glyph-name="x" horiz-adv-x="796" d="M23 0L326 551L70 1034H217L406 645L610 1034H745L475 557L774 0H625L397 449L160 0H23Z" />
<glyph unicode="y" glyph-name="y" horiz-adv-x="796" d="M227 -391L348 -2L20 1034H154L406 186H410L653 1034H776L348 -391H227Z" />
<glyph unicode="z" glyph-name="z" horiz-adv-x="681" d="M57 0V100L487 936H82V1034H612V932L193 98H623V0H57Z" />
<glyph unicode="{" glyph-name="braceleft" horiz-adv-x="718" d="M293 891V1288Q293 1363 316 1411T384 1483T477 1514T594 1522V1423Q495 1423 460 1382T424 1255V926Q424 866 419 828T396 751T342 686T246 641V637Q352 618 388 558T424 381V-4Q424 -88 459
-130T594 -172V-270Q539 -270 500 -266T419 -248T352 -209T310 -141T293 -37V387Q293 420 285 453T259 518T206 570T125 590V688Q171 688 206 708T258 760T284 825T293 891Z" />
<glyph unicode="|" glyph-name="bar" horiz-adv-x="454" d="M174 -512V1536H281V-512H174Z" />
<glyph unicode="}" glyph-name="braceright" horiz-adv-x="718" d="M426 1288V891Q426 858 434 825T460 760T513 708T594 688V590Q548 590 513 570T461 518T435 453T426 387V-37Q426 -97 410 -140T368 -208T301 -247T220 -266T125 -270V-172Q224 -172 259 -130T295
-4V381Q295 498 331 558T473 637V641Q414 659 377 685T323 751T301 828T295 926V1255Q295 1340 260 1381T125 1423V1522Q194 1522 241 1514T334 1483T403 1412T426 1288Z" />
<glyph unicode="~" glyph-name="asciitilde" horiz-adv-x="909" d="M111 379L41 451Q92 532 146 579T276 627Q343 627 469 573Q477 570 501 561T534 548T561 537T590 528T614 523T637 520Q688 520 730 560T801 657L868 575Q766 410 637 410Q615 410 582 418T527
434T463 457T416 475Q409 478 391 485T362 497T335 506T305 513T276 516Q246 516 221 505T173 467T142 428T111 379Z" />
</font>
</defs>
</svg>
